<svg xmlns="http://www.w3.org/2000/svg" viewBox="0 0 840 560" font-family="-apple-system, 'Helvetica Neue', sans-serif">

  <!-- Window -->
  <rect width="840" height="560" rx="10" fill="#1e1e1e"/>

  <!-- macOS titlebar -->
  <rect width="840" height="36" rx="10" fill="#282828"/>
  <rect x="0" y="22" width="840" height="14" fill="#282828"/>
  <circle cx="18" cy="18" r="5.5" fill="#ff5f57"/>
  <circle cx="36" cy="18" r="5.5" fill="#febc2e"/>
  <circle cx="54" cy="18" r="5.5" fill="#28c840"/>

  <!-- Top tabs -->
  <rect x="340" y="6" width="160" height="26" rx="8" fill="#383838"/>
  <rect x="344" y="9" width="50" height="20" rx="6" fill="#505050"/>
  <text x="369" y="23" text-anchor="middle" fill="#fff" font-size="11.5" font-weight="600">Chat</text>
  <text x="424" y="23" text-anchor="middle" fill="#888" font-size="11.5" font-weight="500">Cowork</text>
  <text x="484" y="23" text-anchor="middle" fill="#888" font-size="11.5" font-weight="500">Code</text>

  <!-- LEFT SIDEBAR -->
  <rect x="0" y="36" width="220" height="524" fill="#191919"/>

  <text x="20" y="68" fill="#aaa" font-size="13">+ New chat</text>
  <text x="20" y="94" fill="#777" font-size="12.5">Search</text>
  <text x="20" y="116" fill="#777" font-size="12.5">Projects</text>

  <text x="14" y="148" fill="#666" font-size="10.5" font-weight="600">Recent</text>
  <rect x="4" y="156" width="212" height="30" rx="6" fill="#2a2a2a"/>
  <text x="16" y="176" fill="#ddd" font-size="12">Auth flow decision search</text>
  <text x="16" y="204" fill="#888" font-size="12">Document search</text>
  <text x="16" y="226" fill="#888" font-size="12">Project status check</text>
  <text x="16" y="248" fill="#888" font-size="12">PRD audit results</text>

  <rect x="10" y="264" width="200" height="1" fill="#333"/>

  <!-- User profile -->
  <circle cx="30" cy="530" r="12" fill="#6366f1"/>
  <text x="30" y="534" text-anchor="middle" fill="white" font-size="10" font-weight="700">U</text>
  <text x="50" y="527" fill="#ccc" font-size="12" font-weight="500">User</text>
  <text x="50" y="542" fill="#777" font-size="10">Pro plan</text>

  <!-- MAIN CHAT AREA -->
  <rect x="220" y="36" width="620" height="476" fill="#212121"/>

  <!-- Conversation title -->
  <text x="244" y="62" fill="#ddd" font-size="14" font-weight="500">Auth flow decision search</text>
  <text x="428" y="62" fill="#666" font-size="12"> ∨</text>

  <!-- ===== USER MESSAGE 1 ===== -->
  <g opacity="0">
    <animate attributeName="opacity" values="0;0;1;1;1;1;1;1;1;1;1;1;1;1;1;1;1;1;1;1" dur="20s" repeatCount="indefinite"/>
    <rect x="434" y="82" width="370" height="40" rx="18" fill="#303030"/>
    <text x="454" y="107" fill="#e8e8e8" font-size="14">What did we decide about the auth flow?</text>
  </g>

  <!-- ===== TOOL USE ===== -->
  <g opacity="0">
    <animate attributeName="opacity" values="0;0;0;0;1;1;1;1;1;1;1;1;1;1;1;1;1;1;1;1" dur="20s" repeatCount="indefinite"/>
    <text x="244" y="150" fill="#888" font-size="12">tessera integration used, tool used ›</text>
  </g>

  <!-- ===== CLAUDE RESPONSE ===== -->
  <g opacity="0">
    <animate attributeName="opacity" values="0;0;0;0;0;0;1;1;1;1;1;1;1;1;1;1;1;1;1;1" dur="20s" repeatCount="indefinite"/>

    <text x="244" y="178" fill="#e0e0e0" font-size="14" font-weight="600">Based on your decision log from January 15:</text>

    <text x="244" y="206" fill="#c0c0c0" font-size="13.5">The team decided to use <tspan font-weight="600" fill="#e0e0e0">OAuth 2.0 + PKCE</tspan> for the</text>
    <text x="244" y="224" fill="#c0c0c0" font-size="13.5">auth flow, replacing the session-based approach.</text>

    <text x="244" y="252" fill="#c0c0c0" font-size="13.5">Key reasons:</text>

    <circle cx="262" cy="272" r="2.5" fill="#888"/>
    <text x="274" y="276" fill="#aaa" font-size="13">Mobile app support without cookie issues</text>

    <circle cx="262" cy="296" r="2.5" fill="#888"/>
    <text x="274" y="300" fill="#aaa" font-size="13">Third-party integration readiness</text>

    <circle cx="262" cy="320" r="2.5" fill="#888"/>
    <text x="274" y="324" fill="#aaa" font-size="13">Token refresh without re-login</text>

    <text x="244" y="352" fill="#aaa" font-size="13.5">Let me know if you need more details!</text>

    <!-- Action buttons — simple SVG shapes -->
    <!-- Copy -->
    <rect x="244" y="368" width="16" height="16" rx="2" fill="none" stroke="#555" stroke-width="1.2"/>
    <rect x="248" y="372" width="16" height="16" rx="2" fill="none" stroke="#555" stroke-width="1.2"/>
    <!-- Thumbs up -->
    <text x="278" y="383" fill="#555" font-size="15">△</text>
    <!-- Thumbs down -->
    <text x="302" y="383" fill="#555" font-size="15">▽</text>
    <!-- Retry -->
    <text x="326" y="383" fill="#555" font-size="13">↻</text>

    <!-- Claude sparkle icon -->
    <g transform="translate(244, 400)">
      <line x1="8" y1="0" x2="8" y2="16" stroke="#da7b56" stroke-width="2" stroke-linecap="round"/>
      <line x1="0" y1="8" x2="16" y2="8" stroke="#da7b56" stroke-width="2" stroke-linecap="round"/>
      <line x1="2.5" y1="2.5" x2="13.5" y2="13.5" stroke="#da7b56" stroke-width="1.5" stroke-linecap="round"/>
      <line x1="13.5" y1="2.5" x2="2.5" y2="13.5" stroke="#da7b56" stroke-width="1.5" stroke-linecap="round"/>
    </g>
  </g>

  <!-- ===== USER MESSAGE 2 ===== -->
  <g opacity="0">
    <animate attributeName="opacity" values="0;0;0;0;0;0;0;0;0;0;0;1;1;1;1;1;1;1;1;1" dur="20s" repeatCount="indefinite"/>
    <rect x="484" y="434" width="320" height="40" rx="18" fill="#303030"/>
    <text x="504" y="459" fill="#e8e8e8" font-size="14">Remember this for next session.</text>
  </g>

  <!-- ===== INPUT BAR ===== -->
  <rect x="220" y="512" width="620" height="48" fill="#212121"/>
  <rect x="244" y="516" width="572" height="38" rx="19" fill="#2c2c2c" stroke="#444" stroke-width="1"/>
  <text x="264" y="540" fill="#888" font-size="15">+</text>
  <text x="290" y="540" fill="#666" font-size="13">Reply...</text>
  <text x="696" y="540" fill="#999" font-size="11.5" font-weight="500">Opus 4.6</text>
  <text x="748" y="540" fill="#666" font-size="10">∨</text>
  <circle cx="780" cy="535" r="14" fill="#da7b56"/>
  <text x="780" y="540" text-anchor="middle" fill="white" font-size="14" font-weight="600">↑</text>

</svg>
